<?xml version="1.0" standalone="no"?>
<!DOCTYPE svg PUBLIC "-//W3C//DTD SVG 20010904//EN"
 "http://www.w3.org/TR/2001/REC-SVG-20010904/DTD/svg10.dtd">
	<svg version="1.0" xmlns="http://www.w3.org/2000/svg"
	 width="321.000000pt" height="157.000000pt" viewBox="0 0 321.000000 157.000000"
	 preserveAspectRatio="xMidYMid meet">

	<g transform="translate(0.000000,157.000000) scale(0.100000,-0.100000)"
	fill="#000000" stroke="none">
	<path d="M1797 1353 c-3 -5 -5 -43 -6 -86 -2 -76 -1 -78 21 -75 21 3 23 9 26
	61 2 41 -1 57 -10 57 -10 0 -10 2 1 9 17 11 7 41 -13 41 -8 0 -17 -3 -19 -7z"/>
	<path d="M1520 1330 c0 -13 -7 -20 -18 -20 -27 0 -42 -20 -42 -56 0 -43 21
	-62 70 -62 l40 -1 0 80 c0 78 0 79 -25 79 -18 0 -25 -5 -25 -20z m-3 -97 c-3
	-10 -5 -4 -5 12 0 17 2 24 5 18 2 -7 2 -21 0 -30z"/>
	<path d="M1890 1332 c0 -9 -9 -23 -20 -30 -14 -8 -20 -23 -20 -46 0 -61 50
	-86 90 -46 27 27 25 56 -4 85 -21 21 -22 25 -8 39 15 15 14 16 -11 16 -19 0
	-27 -5 -27 -18z m20 -82 c0 -11 -4 -20 -10 -20 -5 0 -10 9 -10 20 0 11 5 20
	10 20 6 0 10 -9 10 -20z"/>
	<path d="M1120 1260 c0 -68 1 -70 25 -70 20 0 25 5 25 25 0 18 5 25 20 25 11
	0 20 7 20 15 0 8 -9 15 -20 15 -11 0 -20 5 -20 10 0 6 11 10 25 10 18 0 25 5
	25 20 0 17 -7 20 -50 20 l-50 0 0 -70z"/>
	<path d="M1232 1253 c3 -51 6 -58 26 -61 13 -2 22 2 22 9 0 10 3 10 12 1 27
	-27 38 -13 38 48 0 53 -2 60 -20 60 -17 0 -20 -7 -20 -40 0 -22 -4 -40 -10
	-40 -5 0 -10 18 -10 40 0 34 -3 40 -20 40 -19 0 -21 -5 -18 -57z"/>
	<path d="M1350 1249 c0 -52 2 -59 20 -59 17 0 20 7 20 40 0 22 3 40 8 40 4 0
	7 -17 7 -37 0 -32 4 -39 23 -41 22 -3 23 -1 20 55 l-3 58 -47 1 -48 2 0 -59z"/>
	<path d="M1587 1303 c-16 -15 -5 -33 21 -34 l27 -1 -28 -10 c-23 -8 -28 -15
	-25 -37 3 -24 6 -26 53 -26 l50 0 -4 45 c-1 25 -8 51 -13 58 -11 13 -70 17
	-81 5z"/>
	<path d="M1706 1294 c-35 -35 -5 -108 42 -102 33 4 44 38 13 38 -14 0 -21 6
	-21 20 0 13 7 20 20 20 13 0 20 7 20 20 0 15 -7 20 -29 20 -16 0 -37 -7 -45
	-16z"/>
	<path d="M2655 1110 c-29 -57 -32 -80 -10 -80 17 0 154 91 155 103 0 12 -47
	27 -85 27 -31 0 -37 -5 -60 -50z"/>
	<path d="M501 1119 c-106 -9 -148 -29 -63 -29 29 0 52 -4 52 -9 0 -5 -9 -53
	-19 -107 -11 -55 -25 -131 -31 -171 l-12 -72 -41 -6 c-23 -4 -46 -10 -51 -12
	-18 -11 20 -22 59 -17 22 3 121 9 219 12 130 5 181 10 184 20 2 8 -10 12 -42
	12 -25 0 -46 3 -46 7 0 21 23 133 27 133 3 0 21 -17 39 -37 21 -25 36 -35 42
	-28 15 16 25 205 11 205 -7 0 -30 -19 -52 -42 -35 -38 -39 -40 -34 -18 3 14 9
	51 12 83 4 31 10 57 14 57 4 0 42 -27 86 -60 43 -33 83 -59 89 -57 14 5 19 50
	11 104 l-6 43 -177 -1 c-97 -1 -219 -6 -271 -10z"/>
	<path d="M2356 1079 c-46 -36 -27 -89 32 -89 26 0 72 37 72 59 0 23 -31 51
	-57 51 -11 0 -32 -9 -47 -21z"/>
	<path d="M1929 995 c-10 -26 -17 -34 -29 -29 -8 4 -31 9 -51 11 -71 9 -128
	-72 -95 -135 20 -38 41 -46 79 -27 17 8 31 14 31 13 27 -78 78 -88 147 -31 20
	18 34 23 36 16 10 -29 46 -62 73 -68 41 -9 102 12 98 33 -4 17 -11 18 -75 6
	-42 -8 -42 2 -2 86 l32 65 8 -32 c15 -53 85 -58 108 -7 16 36 6 59 -33 78 -74
	35 -153 11 -200 -61 -13 -21 -41 -54 -61 -73 -35 -33 -37 -33 -30 -10 4 14 20
	54 36 89 41 91 41 94 -23 105 -35 6 -37 5 -49 -29z m-49 -76 c0 -19 -47 -76
	-56 -67 -5 6 16 69 29 85 12 17 27 7 27 -18z"/>
	<path d="M1425 1007 c-7 -21 -35 -216 -35 -242 0 -20 5 -25 24 -25 32 0 40 13
	66 100 37 126 75 135 47 11 -14 -60 -14 -63 6 -82 11 -10 27 -19 34 -19 16 0
	37 45 55 117 12 48 27 77 35 69 3 -3 -3 -41 -13 -86 -19 -88 -14 -103 31 -98
	15 2 23 18 37 78 9 41 17 87 18 102 0 48 -60 63 -116 29 -26 -16 -33 -17 -49
	-5 -10 8 -27 14 -37 14 -11 0 -15 5 -12 15 6 16 -1 20 -54 29 -21 4 -34 1 -37
	-7z"/>
	<path d="M1159 1003 c-11 -3 -25 -36 -44 -98 -30 -102 -26 -125 19 -125 34 0
	45 13 56 66 9 42 16 52 40 61 26 10 30 9 30 -6 0 -28 30 -61 55 -61 13 0 36
	11 51 24 25 21 27 27 18 57 -9 31 -13 34 -51 37 -24 2 -58 -1 -77 -6 -33 -10
	-34 -9 -33 16 2 19 -4 27 -23 32 -14 3 -32 5 -41 3z"/>
	<path d="M2588 983 c-35 -5 -75 -53 -84 -98 -6 -36 -28 -56 -91 -89 l-33 -16
	26 70 c15 38 24 76 21 84 -7 17 -59 30 -87 21 -16 -5 -18 -10 -10 -25 7 -13 3
	-38 -15 -91 -30 -86 -28 -74 -9 -93 24 -25 62 -19 132 19 50 28 67 33 78 24
	35 -29 132 19 164 80 46 91 14 130 -92 114z m42 -60 c0 -10 -10 -34 -22 -53
	l-23 -35 -3 28 c-4 29 20 77 38 77 6 0 10 -8 10 -17z"/>
	<path d="M921 947 c-49 -29 -67 -105 -33 -147 12 -15 33 -24 65 -27 43 -5 49
	-3 82 30 30 30 35 42 35 80 0 28 -6 49 -15 57 -23 19 -106 23 -134 7z m74 -93
	c-7 -25 -16 -49 -19 -52 -10 -9 -7 33 5 67 17 49 30 36 14 -15z"/>
	<path d="M852 686 c-11 -18 -15 -203 -4 -210 6 -4 36 30 69 79 32 47 59 81 61
	76 2 -5 -6 -91 -17 -191 -12 -99 -21 -183 -21 -185 0 -3 -18 -5 -41 -5 -28 0
	-39 -4 -37 -12 6 -17 70 -21 206 -13 86 5 112 10 112 21 0 9 -12 14 -35 14
	l-36 0 6 58 c8 81 25 294 25 315 0 28 15 20 33 -19 24 -48 77 -114 94 -114 10
	0 13 23 13 101 l0 100 -211 -3 c-116 -2 -213 -7 -217 -12z"/>
	<path d="M2495 670 c-49 -96 -145 -370 -145 -416 0 -24 45 -35 100 -23 51 11
	110 45 118 67 6 20 -31 14 -71 -13 -20 -14 -37 -23 -37 -19 0 4 30 84 66 178
	37 94 71 186 76 205 12 41 1 51 -54 51 -32 0 -40 -5 -53 -30z"/>
	<path d="M2782 693 c-51 -5 -48 1 -148 -268 -63 -170 -63 -170 -42 -187 28
	-25 99 -23 151 3 48 24 107 77 107 95 0 29 -24 25 -54 -8 -37 -40 -84 -73 -92
	-65 -6 6 110 286 151 362 33 63 19 75 -73 68z"/>
	<path d="M1855 652 c-11 -7 -86 -368 -85 -408 0 -42 57 -46 71 -6 8 24 14 27
	42 24 48 -5 88 41 95 107 6 62 -8 81 -55 81 -28 0 -33 3 -29 18 3 9 12 53 21
	96 13 64 13 81 3 87 -16 11 -50 11 -63 1z m45 -321 c-11 -42 -26 -53 -36 -26
	-8 20 14 108 29 117 17 10 21 -41 7 -91z"/>
	<path d="M670 630 c-29 -29 -23 -64 12 -68 50 -6 81 79 31 86 -12 2 -31 -6
	-43 -18z"/>
	<path d="M1640 643 c-32 -12 -59 -47 -71 -94 -13 -48 -22 -59 -34 -39 -9 14
	-46 12 -78 -5 -26 -13 -28 -13 -23 3 3 9 8 34 12 55 l6 37 -50 0 c-30 0 -56
	-6 -65 -14 -13 -14 -67 -259 -67 -307 0 -19 4 -21 33 -16 74 12 83 21 96 89
	19 92 21 97 41 108 15 8 17 6 13 -10 -14 -52 24 -93 65 -71 17 9 18 6 14 -45
	-4 -44 -1 -59 14 -75 42 -47 146 -1 190 84 13 25 13 28 -3 34 -12 5 -23 -2
	-37 -22 -12 -16 -33 -42 -48 -59 l-27 -31 -1 35 c0 32 25 149 34 158 2 1 32 6
	67 10 70 8 76 15 78 99 1 56 -32 83 -98 82 -25 0 -53 -3 -61 -6z m80 -57 c0
	-55 -12 -84 -37 -89 -22 -4 -24 -2 -17 27 17 82 54 124 54 62z"/>
	<path d="M2218 500 c-20 -48 -22 -49 -35 -30 -31 45 -129 13 -165 -53 -38 -72
	-22 -157 29 -157 15 1 39 7 53 15 34 19 37 19 44 -10 9 -35 43 -40 109 -15 55
	21 107 67 107 96 0 21 -8 18 -57 -26 -25 -22 -49 -40 -53 -40 -8 0 12 57 50
	145 48 108 44 125 -23 125 -36 0 -39 -2 -59 -50z m-58 -88 c0 -27 -47 -108
	-57 -99 -7 8 38 127 48 127 5 0 9 -12 9 -28z"/>
	<path d="M603 523 c-18 -7 -16 -23 1 -23 24 0 26 -14 8 -64 -17 -47 -17 -48 7
	-67 26 -21 81 -25 114 -8 31 16 77 61 77 75 0 19 -40 4 -57 -22 -27 -41 -36
	-29 -29 40 l7 63 -32 7 c-36 7 -78 7 -96 -1z"/>
	</g>
	</svg>
